<?xml version="1.0" encoding="UTF-8" standalone="no"?>
<!DOCTYPE svg PUBLIC "-//W3C//DTD SVG 1.1//EN"
 "http://www.w3.org/Graphics/SVG/1.1/DTD/svg11.dtd">
<!-- Generated by graphviz version 2.43.0 (0)
 -->
<!-- Title: %3 Pages: 1 -->
<svg width="1974pt" height="692pt"
 viewBox="0.00 0.00 1973.88 692.00" xmlns="http://www.w3.org/2000/svg" xmlns:xlink="http://www.w3.org/1999/xlink">
<g id="graph0" class="graph" transform="scale(1 1) rotate(0) translate(4 688)">
<title>%3</title>
<polygon fill="white" stroke="transparent" points="-4,4 -4,-688 1969.88,-688 1969.88,4 -4,4"/>
<!-- [root] aws_dynamodb_table.tfstate&#45;oci (expand) -->
<g id="node1" class="node">
<title>[root] aws_dynamodb_table.tfstate&#45;oci (expand)</title>
<polygon fill="none" stroke="black" points="447.88,-468 202.88,-468 202.88,-432 447.88,-432 447.88,-468"/>
<text text-anchor="middle" x="325.38" y="-446.3" font-family="Times,serif" font-size="14.00">aws_dynamodb_table.tfstate&#45;oci</text>
</g>
<!-- [root] provider[&quot;registry.terraform.io/hashicorp/aws&quot;] -->
<g id="node17" class="node">
<title>[root] provider[&quot;registry.terraform.io/hashicorp/aws&quot;]</title>
<polygon fill="none" stroke="black" points="325.38,-396 0.12,-378 325.38,-360 650.65,-378 325.38,-396"/>
<text text-anchor="middle" x="325.38" y="-374.3" font-family="Times,serif" font-size="14.00">provider[&quot;registry.terraform.io/hashicorp/aws&quot;]</text>
</g>
<!-- [root] aws_dynamodb_table.tfstate&#45;oci (expand)&#45;&gt;[root] provider[&quot;registry.terraform.io/hashicorp/aws&quot;] -->
<g id="edge1" class="edge">
<title>[root] aws_dynamodb_table.tfstate&#45;oci (expand)&#45;&gt;[root] provider[&quot;registry.terraform.io/hashicorp/aws&quot;]</title>
<path fill="none" stroke="black" d="M325.38,-431.7C325.38,-423.98 325.38,-414.71 325.38,-406.11"/>
<polygon fill="black" stroke="black" points="328.88,-406.1 325.38,-396.1 321.88,-406.1 328.88,-406.1"/>
</g>
<!-- [root] aws_s3_bucket.tfstate&#45;oci (expand) -->
<g id="node2" class="node">
<title>[root] aws_s3_bucket.tfstate&#45;oci (expand)</title>
<polygon fill="none" stroke="black" points="727.88,-468 528.88,-468 528.88,-432 727.88,-432 727.88,-468"/>
<text text-anchor="middle" x="628.38" y="-446.3" font-family="Times,serif" font-size="14.00">aws_s3_bucket.tfstate&#45;oci</text>
</g>
<!-- [root] aws_s3_bucket.tfstate&#45;oci (expand)&#45;&gt;[root] provider[&quot;registry.terraform.io/hashicorp/aws&quot;] -->
<g id="edge2" class="edge">
<title>[root] aws_s3_bucket.tfstate&#45;oci (expand)&#45;&gt;[root] provider[&quot;registry.terraform.io/hashicorp/aws&quot;]</title>
<path fill="none" stroke="black" d="M554.65,-431.97C506.08,-420.74 442.87,-406.14 395.13,-395.11"/>
<polygon fill="black" stroke="black" points="395.72,-391.66 385.19,-392.82 394.14,-398.48 395.72,-391.66"/>
</g>
<!-- [root] var.domain -->
<g id="node22" class="node">
<title>[root] var.domain</title>
<polygon fill="none" stroke="black" points="757.88,-396 668.88,-396 668.88,-360 763.88,-360 763.88,-390 757.88,-396"/>
<polyline fill="none" stroke="black" points="757.88,-396 757.88,-390 "/>
<polyline fill="none" stroke="black" points="763.88,-390 757.88,-390 "/>
<text text-anchor="middle" x="716.38" y="-374.3" font-family="Times,serif" font-size="14.00">var.domain</text>
</g>
<!-- [root] aws_s3_bucket.tfstate&#45;oci (expand)&#45;&gt;[root] var.domain -->
<g id="edge3" class="edge">
<title>[root] aws_s3_bucket.tfstate&#45;oci (expand)&#45;&gt;[root] var.domain</title>
<path fill="none" stroke="black" d="M650.13,-431.7C661.22,-422.88 674.86,-412.03 686.87,-402.47"/>
<polygon fill="black" stroke="black" points="689.23,-405.07 694.88,-396.1 684.87,-399.59 689.23,-405.07"/>
</g>
<!-- [root] aws_s3_bucket_acl.tfstate&#45;oci&#45;acl (expand) -->
<g id="node3" class="node">
<title>[root] aws_s3_bucket_acl.tfstate&#45;oci&#45;acl (expand)</title>
<polygon fill="none" stroke="black" points="982.88,-540 731.88,-540 731.88,-504 982.88,-504 982.88,-540"/>
<text text-anchor="middle" x="857.38" y="-518.3" font-family="Times,serif" font-size="14.00">aws_s3_bucket_acl.tfstate&#45;oci&#45;acl</text>
</g>
<!-- [root] aws_s3_bucket_acl.tfstate&#45;oci&#45;acl (expand)&#45;&gt;[root] aws_s3_bucket.tfstate&#45;oci (expand) -->
<g id="edge4" class="edge">
<title>[root] aws_s3_bucket_acl.tfstate&#45;oci&#45;acl (expand)&#45;&gt;[root] aws_s3_bucket.tfstate&#45;oci (expand)</title>
<path fill="none" stroke="black" d="M801.65,-503.97C769.24,-494.06 728.21,-481.51 694.21,-471.12"/>
<polygon fill="black" stroke="black" points="694.94,-467.69 684.36,-468.11 692.9,-474.38 694.94,-467.69"/>
</g>
<!-- [root] aws_s3_bucket_versioning.tfstate&#45;oci&#45;versioning (expand) -->
<g id="node4" class="node">
<title>[root] aws_s3_bucket_versioning.tfstate&#45;oci&#45;versioning (expand)</title>
<polygon fill="none" stroke="black" points="713.38,-540 353.38,-540 353.38,-504 713.38,-504 713.38,-540"/>
<text text-anchor="middle" x="533.38" y="-518.3" font-family="Times,serif" font-size="14.00">aws_s3_bucket_versioning.tfstate&#45;oci&#45;versioning</text>
</g>
<!-- [root] aws_s3_bucket_versioning.tfstate&#45;oci&#45;versioning (expand)&#45;&gt;[root] aws_s3_bucket.tfstate&#45;oci (expand) -->
<g id="edge5" class="edge">
<title>[root] aws_s3_bucket_versioning.tfstate&#45;oci&#45;versioning (expand)&#45;&gt;[root] aws_s3_bucket.tfstate&#45;oci (expand)</title>
<path fill="none" stroke="black" d="M556.86,-503.7C568.94,-494.8 583.84,-483.82 596.9,-474.2"/>
<polygon fill="black" stroke="black" points="599.19,-476.85 605.17,-468.1 595.04,-471.22 599.19,-476.85"/>
</g>
<!-- [root] data.oci_identity_availability_domains.ads (expand) -->
<g id="node5" class="node">
<title>[root] data.oci_identity_availability_domains.ads (expand)</title>
<polygon fill="none" stroke="black" points="1046.88,-180 729.88,-180 729.88,-144 1046.88,-144 1046.88,-180"/>
<text text-anchor="middle" x="888.38" y="-158.3" font-family="Times,serif" font-size="14.00">data.oci_identity_availability_domains.ads</text>
</g>
<!-- [root] provider[&quot;registry.terraform.io/oracle/oci&quot;] -->
<g id="node18" class="node">
<title>[root] provider[&quot;registry.terraform.io/oracle/oci&quot;]</title>
<polygon fill="none" stroke="black" points="888.38,-108 594.12,-90 888.38,-72 1182.64,-90 888.38,-108"/>
<text text-anchor="middle" x="888.38" y="-86.3" font-family="Times,serif" font-size="14.00">provider[&quot;registry.terraform.io/oracle/oci&quot;]</text>
</g>
<!-- [root] data.oci_identity_availability_domains.ads (expand)&#45;&gt;[root] provider[&quot;registry.terraform.io/oracle/oci&quot;] -->
<g id="edge6" class="edge">
<title>[root] data.oci_identity_availability_domains.ads (expand)&#45;&gt;[root] provider[&quot;registry.terraform.io/oracle/oci&quot;]</title>
<path fill="none" stroke="black" d="M888.38,-143.7C888.38,-135.98 888.38,-126.71 888.38,-118.11"/>
<polygon fill="black" stroke="black" points="891.88,-118.1 888.38,-108.1 884.88,-118.1 891.88,-118.1"/>
</g>
<!-- [root] var.compartment_id -->
<g id="node20" class="node">
<title>[root] var.compartment_id</title>
<polygon fill="none" stroke="black" points="1353.88,-108 1200.88,-108 1200.88,-72 1359.88,-72 1359.88,-102 1353.88,-108"/>
<polyline fill="none" stroke="black" points="1353.88,-108 1353.88,-102 "/>
<polyline fill="none" stroke="black" points="1359.88,-102 1353.88,-102 "/>
<text text-anchor="middle" x="1280.38" y="-86.3" font-family="Times,serif" font-size="14.00">var.compartment_id</text>
</g>
<!-- [root] data.oci_identity_availability_domains.ads (expand)&#45;&gt;[root] var.compartment_id -->
<g id="edge7" class="edge">
<title>[root] data.oci_identity_availability_domains.ads (expand)&#45;&gt;[root] var.compartment_id</title>
<path fill="none" stroke="black" d="M988.07,-143.96C1044.67,-134.2 1117.08,-121.54 1190.87,-108.08"/>
<polygon fill="black" stroke="black" points="1191.61,-111.5 1200.82,-106.26 1190.35,-104.62 1191.61,-111.5"/>
</g>
<!-- [root] oci_containerengine_cluster.k8s_cluster (expand) -->
<g id="node6" class="node">
<title>[root] oci_containerengine_cluster.k8s_cluster (expand)</title>
<polygon fill="none" stroke="black" points="1533.88,-468 1234.88,-468 1234.88,-432 1533.88,-432 1533.88,-468"/>
<text text-anchor="middle" x="1384.38" y="-446.3" font-family="Times,serif" font-size="14.00">oci_containerengine_cluster.k8s_cluster</text>
</g>
<!-- [root] oci_core_subnet.kubernetes_api_endpoint_subnet (expand) -->
<g id="node13" class="node">
<title>[root] oci_core_subnet.kubernetes_api_endpoint_subnet (expand)</title>
<polygon fill="none" stroke="black" points="1235.38,-396 867.38,-396 867.38,-360 1235.38,-360 1235.38,-396"/>
<text text-anchor="middle" x="1051.38" y="-374.3" font-family="Times,serif" font-size="14.00">oci_core_subnet.kubernetes_api_endpoint_subnet</text>
</g>
<!-- [root] oci_containerengine_cluster.k8s_cluster (expand)&#45;&gt;[root] oci_core_subnet.kubernetes_api_endpoint_subnet (expand) -->
<g id="edge8" class="edge">
<title>[root] oci_containerengine_cluster.k8s_cluster (expand)&#45;&gt;[root] oci_core_subnet.kubernetes_api_endpoint_subnet (expand)</title>
<path fill="none" stroke="black" d="M1303.35,-431.97C1254.71,-421.74 1192.71,-408.71 1142.39,-398.13"/>
<polygon fill="black" stroke="black" points="1143,-394.68 1132.49,-396.05 1141.56,-401.53 1143,-394.68"/>
</g>
<!-- [root] oci_core_subnet.service_lb_subnet (expand) -->
<g id="node15" class="node">
<title>[root] oci_core_subnet.service_lb_subnet (expand)</title>
<polygon fill="none" stroke="black" points="1514.88,-396 1253.88,-396 1253.88,-360 1514.88,-360 1514.88,-396"/>
<text text-anchor="middle" x="1384.38" y="-374.3" font-family="Times,serif" font-size="14.00">oci_core_subnet.service_lb_subnet</text>
</g>
<!-- [root] oci_containerengine_cluster.k8s_cluster (expand)&#45;&gt;[root] oci_core_subnet.service_lb_subnet (expand) -->
<g id="edge9" class="edge">
<title>[root] oci_containerengine_cluster.k8s_cluster (expand)&#45;&gt;[root] oci_core_subnet.service_lb_subnet (expand)</title>
<path fill="none" stroke="black" d="M1384.38,-431.7C1384.38,-423.98 1384.38,-414.71 1384.38,-406.11"/>
<polygon fill="black" stroke="black" points="1387.88,-406.1 1384.38,-396.1 1380.88,-406.1 1387.88,-406.1"/>
</g>
<!-- [root] oci_containerengine_node_pool.create_node_pool_details0 (expand) -->
<g id="node7" class="node">
<title>[root] oci_containerengine_node_pool.create_node_pool_details0 (expand)</title>
<polygon fill="none" stroke="black" points="1429.38,-540 1001.38,-540 1001.38,-504 1429.38,-504 1429.38,-540"/>
<text text-anchor="middle" x="1215.38" y="-518.3" font-family="Times,serif" font-size="14.00">oci_containerengine_node_pool.create_node_pool_details0</text>
</g>
<!-- [root] oci_containerengine_node_pool.create_node_pool_details0 (expand)&#45;&gt;[root] data.oci_identity_availability_domains.ads (expand) -->
<g id="edge10" class="edge">
<title>[root] oci_containerengine_node_pool.create_node_pool_details0 (expand)&#45;&gt;[root] data.oci_identity_availability_domains.ads (expand)</title>
<path fill="none" stroke="black" d="M1039.39,-503.97C976.65,-495.5 914.95,-483.66 888.38,-468 845.03,-442.45 818.38,-429.32 818.38,-379 818.38,-379 818.38,-379 818.38,-305 818.38,-264.55 818.41,-251.72 837.38,-216 843.03,-205.36 851.45,-195.36 859.82,-186.98"/>
<polygon fill="black" stroke="black" points="862.27,-189.48 867.1,-180.05 857.44,-184.41 862.27,-189.48"/>
</g>
<!-- [root] oci_containerengine_node_pool.create_node_pool_details0 (expand)&#45;&gt;[root] oci_containerengine_cluster.k8s_cluster (expand) -->
<g id="edge11" class="edge">
<title>[root] oci_containerengine_node_pool.create_node_pool_details0 (expand)&#45;&gt;[root] oci_containerengine_cluster.k8s_cluster (expand)</title>
<path fill="none" stroke="black" d="M1256.72,-503.88C1279.93,-494.26 1309.07,-482.19 1333.65,-472.01"/>
<polygon fill="black" stroke="black" points="1335.27,-475.13 1343.17,-468.07 1332.6,-468.66 1335.27,-475.13"/>
</g>
<!-- [root] oci_core_subnet.node_subnet (expand) -->
<g id="node14" class="node">
<title>[root] oci_core_subnet.node_subnet (expand)</title>
<polygon fill="none" stroke="black" points="1757.38,-396 1533.38,-396 1533.38,-360 1757.38,-360 1757.38,-396"/>
<text text-anchor="middle" x="1645.38" y="-374.3" font-family="Times,serif" font-size="14.00">oci_core_subnet.node_subnet</text>
</g>
<!-- [root] oci_containerengine_node_pool.create_node_pool_details0 (expand)&#45;&gt;[root] oci_core_subnet.node_subnet (expand) -->
<g id="edge12" class="edge">
<title>[root] oci_containerengine_node_pool.create_node_pool_details0 (expand)&#45;&gt;[root] oci_core_subnet.node_subnet (expand)</title>
<path fill="none" stroke="black" d="M1428.09,-503.99C1467.26,-496.03 1506.94,-484.54 1542.38,-468 1574.85,-452.85 1604.99,-424.42 1624.17,-403.76"/>
<polygon fill="black" stroke="black" points="1626.84,-406.03 1630.97,-396.27 1621.66,-401.32 1626.84,-406.03"/>
</g>
<!-- [root] var.instance_shape -->
<g id="node24" class="node">
<title>[root] var.instance_shape</title>
<polygon fill="none" stroke="black" points="1043.38,-468 897.38,-468 897.38,-432 1049.38,-432 1049.38,-462 1043.38,-468"/>
<polyline fill="none" stroke="black" points="1043.38,-468 1043.38,-462 "/>
<polyline fill="none" stroke="black" points="1049.38,-462 1043.38,-462 "/>
<text text-anchor="middle" x="973.38" y="-446.3" font-family="Times,serif" font-size="14.00">var.instance_shape</text>
</g>
<!-- [root] oci_containerengine_node_pool.create_node_pool_details0 (expand)&#45;&gt;[root] var.instance_shape -->
<g id="edge13" class="edge">
<title>[root] oci_containerengine_node_pool.create_node_pool_details0 (expand)&#45;&gt;[root] var.instance_shape</title>
<path fill="none" stroke="black" d="M1156.49,-503.97C1122.09,-494.01 1078.5,-481.41 1042.48,-470.99"/>
<polygon fill="black" stroke="black" points="1043.11,-467.53 1032.54,-468.11 1041.17,-474.25 1043.11,-467.53"/>
</g>
<!-- [root] var.ssh_public_key -->
<g id="node26" class="node">
<title>[root] var.ssh_public_key</title>
<polygon fill="none" stroke="black" points="1210.88,-468 1067.88,-468 1067.88,-432 1216.88,-432 1216.88,-462 1210.88,-468"/>
<polyline fill="none" stroke="black" points="1210.88,-468 1210.88,-462 "/>
<polyline fill="none" stroke="black" points="1216.88,-462 1210.88,-462 "/>
<text text-anchor="middle" x="1142.38" y="-446.3" font-family="Times,serif" font-size="14.00">var.ssh_public_key</text>
</g>
<!-- [root] oci_containerengine_node_pool.create_node_pool_details0 (expand)&#45;&gt;[root] var.ssh_public_key -->
<g id="edge14" class="edge">
<title>[root] oci_containerengine_node_pool.create_node_pool_details0 (expand)&#45;&gt;[root] var.ssh_public_key</title>
<path fill="none" stroke="black" d="M1197.34,-503.7C1188.32,-495.05 1177.26,-484.45 1167.44,-475.03"/>
<polygon fill="black" stroke="black" points="1169.86,-472.5 1160.22,-468.1 1165.01,-477.55 1169.86,-472.5"/>
</g>
<!-- [root] oci_core_default_route_table.default_route_table (expand) -->
<g id="node8" class="node">
<title>[root] oci_core_default_route_table.default_route_table (expand)</title>
<polygon fill="none" stroke="black" points="1496.38,-324 1134.38,-324 1134.38,-288 1496.38,-288 1496.38,-324"/>
<text text-anchor="middle" x="1315.38" y="-302.3" font-family="Times,serif" font-size="14.00">oci_core_default_route_table.default_route_table</text>
</g>
<!-- [root] oci_core_internet_gateway.internet_gateway (expand) -->
<g id="node9" class="node">
<title>[root] oci_core_internet_gateway.internet_gateway (expand)</title>
<polygon fill="none" stroke="black" points="1606.38,-252 1274.38,-252 1274.38,-216 1606.38,-216 1606.38,-252"/>
<text text-anchor="middle" x="1440.38" y="-230.3" font-family="Times,serif" font-size="14.00">oci_core_internet_gateway.internet_gateway</text>
</g>
<!-- [root] oci_core_default_route_table.default_route_table (expand)&#45;&gt;[root] oci_core_internet_gateway.internet_gateway (expand) -->
<g id="edge15" class="edge">
<title>[root] oci_core_default_route_table.default_route_table (expand)&#45;&gt;[root] oci_core_internet_gateway.internet_gateway (expand)</title>
<path fill="none" stroke="black" d="M1345.96,-287.88C1362.46,-278.64 1383.01,-267.13 1400.72,-257.21"/>
<polygon fill="black" stroke="black" points="1402.67,-260.13 1409.69,-252.19 1399.25,-254.02 1402.67,-260.13"/>
</g>
<!-- [root] oci_core_vcn.vcn (expand) -->
<g id="node16" class="node">
<title>[root] oci_core_vcn.vcn (expand)</title>
<polygon fill="none" stroke="black" points="1507.88,-180 1372.88,-180 1372.88,-144 1507.88,-144 1507.88,-180"/>
<text text-anchor="middle" x="1440.38" y="-158.3" font-family="Times,serif" font-size="14.00">oci_core_vcn.vcn</text>
</g>
<!-- [root] oci_core_internet_gateway.internet_gateway (expand)&#45;&gt;[root] oci_core_vcn.vcn (expand) -->
<g id="edge16" class="edge">
<title>[root] oci_core_internet_gateway.internet_gateway (expand)&#45;&gt;[root] oci_core_vcn.vcn (expand)</title>
<path fill="none" stroke="black" d="M1440.38,-215.7C1440.38,-207.98 1440.38,-198.71 1440.38,-190.11"/>
<polygon fill="black" stroke="black" points="1443.88,-190.1 1440.38,-180.1 1436.88,-190.1 1443.88,-190.1"/>
</g>
<!-- [root] oci_core_security_list.kubernetes_api_endpoint_sec_list (expand) -->
<g id="node10" class="node">
<title>[root] oci_core_security_list.kubernetes_api_endpoint_sec_list (expand)</title>
<polygon fill="none" stroke="black" points="1256.38,-252 846.38,-252 846.38,-216 1256.38,-216 1256.38,-252"/>
<text text-anchor="middle" x="1051.38" y="-230.3" font-family="Times,serif" font-size="14.00">oci_core_security_list.kubernetes_api_endpoint_sec_list</text>
</g>
<!-- [root] oci_core_security_list.kubernetes_api_endpoint_sec_list (expand)&#45;&gt;[root] oci_core_vcn.vcn (expand) -->
<g id="edge17" class="edge">
<title>[root] oci_core_security_list.kubernetes_api_endpoint_sec_list (expand)&#45;&gt;[root] oci_core_vcn.vcn (expand)</title>
<path fill="none" stroke="black" d="M1146.04,-215.97C1212.51,-204.01 1300.32,-188.2 1362.68,-176.98"/>
<polygon fill="black" stroke="black" points="1363.63,-180.37 1372.85,-175.15 1362.39,-173.48 1363.63,-180.37"/>
</g>
<!-- [root] oci_core_security_list.node_sec_list (expand) -->
<g id="node11" class="node">
<title>[root] oci_core_security_list.node_sec_list (expand)</title>
<polygon fill="none" stroke="black" points="1780.38,-324 1514.38,-324 1514.38,-288 1780.38,-288 1780.38,-324"/>
<text text-anchor="middle" x="1647.38" y="-302.3" font-family="Times,serif" font-size="14.00">oci_core_security_list.node_sec_list</text>
</g>
<!-- [root] oci_core_security_list.node_sec_list (expand)&#45;&gt;[root] oci_core_vcn.vcn (expand) -->
<g id="edge18" class="edge">
<title>[root] oci_core_security_list.node_sec_list (expand)&#45;&gt;[root] oci_core_vcn.vcn (expand)</title>
<path fill="none" stroke="black" d="M1645.78,-287.77C1643,-267.78 1635.5,-235.11 1615.38,-216 1589.1,-191.02 1551.43,-177.78 1517.77,-170.78"/>
<polygon fill="black" stroke="black" points="1518.41,-167.34 1507.93,-168.88 1517.09,-174.21 1518.41,-167.34"/>
</g>
<!-- [root] oci_core_security_list.service_lb_sec_list (expand) -->
<g id="node12" class="node">
<title>[root] oci_core_security_list.service_lb_sec_list (expand)</title>
<polygon fill="none" stroke="black" points="1965.88,-252 1662.88,-252 1662.88,-216 1965.88,-216 1965.88,-252"/>
<text text-anchor="middle" x="1814.38" y="-230.3" font-family="Times,serif" font-size="14.00">oci_core_security_list.service_lb_sec_list</text>
</g>
<!-- [root] oci_core_security_list.service_lb_sec_list (expand)&#45;&gt;[root] oci_core_vcn.vcn (expand) -->
<g id="edge19" class="edge">
<title>[root] oci_core_security_list.service_lb_sec_list (expand)&#45;&gt;[root] oci_core_vcn.vcn (expand)</title>
<path fill="none" stroke="black" d="M1723.37,-215.97C1660.52,-204.2 1577.82,-188.72 1518.07,-177.54"/>
<polygon fill="black" stroke="black" points="1518.41,-174.04 1507.93,-175.64 1517.12,-180.92 1518.41,-174.04"/>
</g>
<!-- [root] oci_core_subnet.kubernetes_api_endpoint_subnet (expand)&#45;&gt;[root] oci_core_default_route_table.default_route_table (expand) -->
<g id="edge20" class="edge">
<title>[root] oci_core_subnet.kubernetes_api_endpoint_subnet (expand)&#45;&gt;[root] oci_core_default_route_table.default_route_table (expand)</title>
<path fill="none" stroke="black" d="M1115.63,-359.97C1153.47,-349.93 1201.52,-337.19 1241.01,-326.72"/>
<polygon fill="black" stroke="black" points="1242.08,-330.06 1250.85,-324.11 1240.29,-323.29 1242.08,-330.06"/>
</g>
<!-- [root] oci_core_subnet.kubernetes_api_endpoint_subnet (expand)&#45;&gt;[root] oci_core_security_list.kubernetes_api_endpoint_sec_list (expand) -->
<g id="edge21" class="edge">
<title>[root] oci_core_subnet.kubernetes_api_endpoint_subnet (expand)&#45;&gt;[root] oci_core_security_list.kubernetes_api_endpoint_sec_list (expand)</title>
<path fill="none" stroke="black" d="M1051.38,-359.87C1051.38,-335.67 1051.38,-291.21 1051.38,-262.39"/>
<polygon fill="black" stroke="black" points="1054.88,-262.19 1051.38,-252.19 1047.88,-262.19 1054.88,-262.19"/>
</g>
<!-- [root] oci_core_subnet.node_subnet (expand)&#45;&gt;[root] oci_core_default_route_table.default_route_table (expand) -->
<g id="edge22" class="edge">
<title>[root] oci_core_subnet.node_subnet (expand)&#45;&gt;[root] oci_core_default_route_table.default_route_table (expand)</title>
<path fill="none" stroke="black" d="M1565.08,-359.97C1516.87,-349.74 1455.44,-336.71 1405.57,-326.13"/>
<polygon fill="black" stroke="black" points="1406.27,-322.7 1395.76,-324.05 1404.82,-329.55 1406.27,-322.7"/>
</g>
<!-- [root] oci_core_subnet.node_subnet (expand)&#45;&gt;[root] oci_core_security_list.node_sec_list (expand) -->
<g id="edge23" class="edge">
<title>[root] oci_core_subnet.node_subnet (expand)&#45;&gt;[root] oci_core_security_list.node_sec_list (expand)</title>
<path fill="none" stroke="black" d="M1645.88,-359.7C1646.1,-351.98 1646.36,-342.71 1646.61,-334.11"/>
<polygon fill="black" stroke="black" points="1650.11,-334.2 1646.89,-324.1 1643.11,-334 1650.11,-334.2"/>
</g>
<!-- [root] oci_core_subnet.service_lb_subnet (expand)&#45;&gt;[root] oci_core_default_route_table.default_route_table (expand) -->
<g id="edge24" class="edge">
<title>[root] oci_core_subnet.service_lb_subnet (expand)&#45;&gt;[root] oci_core_default_route_table.default_route_table (expand)</title>
<path fill="none" stroke="black" d="M1367.33,-359.7C1358.89,-351.14 1348.56,-340.66 1339.34,-331.3"/>
<polygon fill="black" stroke="black" points="1341.75,-328.77 1332.24,-324.1 1336.77,-333.68 1341.75,-328.77"/>
</g>
<!-- [root] oci_core_vcn.vcn (expand)&#45;&gt;[root] provider[&quot;registry.terraform.io/oracle/oci&quot;] -->
<g id="edge25" class="edge">
<title>[root] oci_core_vcn.vcn (expand)&#45;&gt;[root] provider[&quot;registry.terraform.io/oracle/oci&quot;]</title>
<path fill="none" stroke="black" d="M1372.7,-152.42C1276.8,-140.26 1100.69,-117.92 989.32,-103.8"/>
<polygon fill="black" stroke="black" points="989.45,-100.29 979.09,-102.5 988.57,-107.23 989.45,-100.29"/>
</g>
<!-- [root] oci_core_vcn.vcn (expand)&#45;&gt;[root] var.compartment_id -->
<g id="edge26" class="edge">
<title>[root] oci_core_vcn.vcn (expand)&#45;&gt;[root] var.compartment_id</title>
<path fill="none" stroke="black" d="M1401.24,-143.88C1379.37,-134.31 1351.92,-122.3 1328.72,-112.15"/>
<polygon fill="black" stroke="black" points="1329.96,-108.87 1319.39,-108.07 1327.15,-115.28 1329.96,-108.87"/>
</g>
<!-- [root] var.cost_center -->
<g id="node21" class="node">
<title>[root] var.cost_center</title>
<polygon fill="none" stroke="black" points="1496.88,-108 1377.88,-108 1377.88,-72 1502.88,-72 1502.88,-102 1496.88,-108"/>
<polyline fill="none" stroke="black" points="1496.88,-108 1496.88,-102 "/>
<polyline fill="none" stroke="black" points="1502.88,-102 1496.88,-102 "/>
<text text-anchor="middle" x="1440.38" y="-86.3" font-family="Times,serif" font-size="14.00">var.cost_center</text>
</g>
<!-- [root] oci_core_vcn.vcn (expand)&#45;&gt;[root] var.cost_center -->
<g id="edge27" class="edge">
<title>[root] oci_core_vcn.vcn (expand)&#45;&gt;[root] var.cost_center</title>
<path fill="none" stroke="black" d="M1440.38,-143.7C1440.38,-135.98 1440.38,-126.71 1440.38,-118.11"/>
<polygon fill="black" stroke="black" points="1443.88,-118.1 1440.38,-108.1 1436.88,-118.1 1443.88,-118.1"/>
</g>
<!-- [root] var.environment -->
<g id="node23" class="node">
<title>[root] var.environment</title>
<polygon fill="none" stroke="black" points="1649.38,-108 1521.38,-108 1521.38,-72 1655.38,-72 1655.38,-102 1649.38,-108"/>
<polyline fill="none" stroke="black" points="1649.38,-108 1649.38,-102 "/>
<polyline fill="none" stroke="black" points="1655.38,-102 1649.38,-102 "/>
<text text-anchor="middle" x="1588.38" y="-86.3" font-family="Times,serif" font-size="14.00">var.environment</text>
</g>
<!-- [root] oci_core_vcn.vcn (expand)&#45;&gt;[root] var.environment -->
<g id="edge28" class="edge">
<title>[root] oci_core_vcn.vcn (expand)&#45;&gt;[root] var.environment</title>
<path fill="none" stroke="black" d="M1476.59,-143.88C1496.64,-134.39 1521.75,-122.51 1543.1,-112.42"/>
<polygon fill="black" stroke="black" points="1544.75,-115.51 1552.29,-108.07 1541.76,-109.18 1544.75,-115.51"/>
</g>
<!-- [root] var.aws_region -->
<g id="node19" class="node">
<title>[root] var.aws_region</title>
<polygon fill="none" stroke="black" points="380.88,-324 263.88,-324 263.88,-288 386.88,-288 386.88,-318 380.88,-324"/>
<polyline fill="none" stroke="black" points="380.88,-324 380.88,-318 "/>
<polyline fill="none" stroke="black" points="386.88,-318 380.88,-318 "/>
<text text-anchor="middle" x="325.38" y="-302.3" font-family="Times,serif" font-size="14.00">var.aws_region</text>
</g>
<!-- [root] provider[&quot;registry.terraform.io/hashicorp/aws&quot;]&#45;&gt;[root] var.aws_region -->
<g id="edge32" class="edge">
<title>[root] provider[&quot;registry.terraform.io/hashicorp/aws&quot;]&#45;&gt;[root] var.aws_region</title>
<path fill="none" stroke="black" d="M325.38,-359.7C325.38,-351.98 325.38,-342.71 325.38,-334.11"/>
<polygon fill="black" stroke="black" points="328.88,-334.1 325.38,-324.1 321.88,-334.1 328.88,-334.1"/>
</g>
<!-- [root] var.region -->
<g id="node25" class="node">
<title>[root] var.region</title>
<polygon fill="none" stroke="black" points="926.88,-36 843.88,-36 843.88,0 932.88,0 932.88,-30 926.88,-36"/>
<polyline fill="none" stroke="black" points="926.88,-36 926.88,-30 "/>
<polyline fill="none" stroke="black" points="932.88,-30 926.88,-30 "/>
<text text-anchor="middle" x="888.38" y="-14.3" font-family="Times,serif" font-size="14.00">var.region</text>
</g>
<!-- [root] provider[&quot;registry.terraform.io/oracle/oci&quot;]&#45;&gt;[root] var.region -->
<g id="edge35" class="edge">
<title>[root] provider[&quot;registry.terraform.io/oracle/oci&quot;]&#45;&gt;[root] var.region</title>
<path fill="none" stroke="black" d="M888.38,-71.7C888.38,-63.98 888.38,-54.71 888.38,-46.11"/>
<polygon fill="black" stroke="black" points="891.88,-46.1 888.38,-36.1 884.88,-46.1 891.88,-46.1"/>
</g>
<!-- [root] provider[&quot;registry.terraform.io/hashicorp/aws&quot;] (close) -->
<g id="node27" class="node">
<title>[root] provider[&quot;registry.terraform.io/hashicorp/aws&quot;] (close)</title>
<ellipse fill="none" stroke="black" cx="584.38" cy="-594" rx="291.65" ry="18"/>
<text text-anchor="middle" x="584.38" y="-590.3" font-family="Times,serif" font-size="14.00">[root] provider[&quot;registry.terraform.io/hashicorp/aws&quot;] (close)</text>
</g>
<!-- [root] provider[&quot;registry.terraform.io/hashicorp/aws&quot;] (close)&#45;&gt;[root] aws_dynamodb_table.tfstate&#45;oci (expand) -->
<g id="edge29" class="edge">
<title>[root] provider[&quot;registry.terraform.io/hashicorp/aws&quot;] (close)&#45;&gt;[root] aws_dynamodb_table.tfstate&#45;oci (expand)</title>
<path fill="none" stroke="black" d="M458.31,-577.71C409.48,-569.27 361.26,-556.99 344.38,-540 328.51,-524.01 324.42,-498.22 323.92,-478.51"/>
<polygon fill="black" stroke="black" points="327.42,-478.3 323.95,-468.29 320.42,-478.27 327.42,-478.3"/>
</g>
<!-- [root] provider[&quot;registry.terraform.io/hashicorp/aws&quot;] (close)&#45;&gt;[root] aws_s3_bucket_acl.tfstate&#45;oci&#45;acl (expand) -->
<g id="edge30" class="edge">
<title>[root] provider[&quot;registry.terraform.io/hashicorp/aws&quot;] (close)&#45;&gt;[root] aws_s3_bucket_acl.tfstate&#45;oci&#45;acl (expand)</title>
<path fill="none" stroke="black" d="M649.08,-576.41C688.64,-566.27 739.44,-553.24 780.98,-542.59"/>
<polygon fill="black" stroke="black" points="781.96,-545.95 790.78,-540.08 780.22,-539.17 781.96,-545.95"/>
</g>
<!-- [root] provider[&quot;registry.terraform.io/hashicorp/aws&quot;] (close)&#45;&gt;[root] aws_s3_bucket_versioning.tfstate&#45;oci&#45;versioning (expand) -->
<g id="edge31" class="edge">
<title>[root] provider[&quot;registry.terraform.io/hashicorp/aws&quot;] (close)&#45;&gt;[root] aws_s3_bucket_versioning.tfstate&#45;oci&#45;versioning (expand)</title>
<path fill="none" stroke="black" d="M571.77,-575.7C565.78,-567.47 558.51,-557.48 551.9,-548.42"/>
<polygon fill="black" stroke="black" points="554.56,-546.13 545.84,-540.1 548.9,-550.25 554.56,-546.13"/>
</g>
<!-- [root] provider[&quot;registry.terraform.io/oracle/oci&quot;] (close) -->
<g id="node28" class="node">
<title>[root] provider[&quot;registry.terraform.io/oracle/oci&quot;] (close)</title>
<ellipse fill="none" stroke="black" cx="1215.38" cy="-594" rx="270.25" ry="18"/>
<text text-anchor="middle" x="1215.38" y="-590.3" font-family="Times,serif" font-size="14.00">[root] provider[&quot;registry.terraform.io/oracle/oci&quot;] (close)</text>
</g>
<!-- [root] provider[&quot;registry.terraform.io/oracle/oci&quot;] (close)&#45;&gt;[root] oci_containerengine_node_pool.create_node_pool_details0 (expand) -->
<g id="edge33" class="edge">
<title>[root] provider[&quot;registry.terraform.io/oracle/oci&quot;] (close)&#45;&gt;[root] oci_containerengine_node_pool.create_node_pool_details0 (expand)</title>
<path fill="none" stroke="black" d="M1215.38,-575.7C1215.38,-567.98 1215.38,-558.71 1215.38,-550.11"/>
<polygon fill="black" stroke="black" points="1218.88,-550.1 1215.38,-540.1 1211.88,-550.1 1218.88,-550.1"/>
</g>
<!-- [root] provider[&quot;registry.terraform.io/oracle/oci&quot;] (close)&#45;&gt;[root] oci_core_security_list.service_lb_sec_list (expand) -->
<g id="edge34" class="edge">
<title>[root] provider[&quot;registry.terraform.io/oracle/oci&quot;] (close)&#45;&gt;[root] oci_core_security_list.service_lb_sec_list (expand)</title>
<path fill="none" stroke="black" d="M1423.35,-582.48C1595.64,-567.87 1812.38,-533.17 1812.38,-451 1812.38,-451 1812.38,-451 1812.38,-377 1812.38,-336.99 1813.19,-290.65 1813.77,-262.08"/>
<polygon fill="black" stroke="black" points="1817.27,-262.12 1813.99,-252.05 1810.28,-261.97 1817.27,-262.12"/>
</g>
<!-- [root] root -->
<g id="node29" class="node">
<title>[root] root</title>
<ellipse fill="none" stroke="black" cx="874.38" cy="-666" rx="58.49" ry="18"/>
<text text-anchor="middle" x="874.38" y="-662.3" font-family="Times,serif" font-size="14.00">[root] root</text>
</g>
<!-- [root] root&#45;&gt;[root] provider[&quot;registry.terraform.io/hashicorp/aws&quot;] (close) -->
<g id="edge36" class="edge">
<title>[root] root&#45;&gt;[root] provider[&quot;registry.terraform.io/hashicorp/aws&quot;] (close)</title>
<path fill="none" stroke="black" d="M829.7,-654.22C785.28,-643.49 716.22,-626.82 662.67,-613.9"/>
<polygon fill="black" stroke="black" points="663.41,-610.47 652.87,-611.53 661.76,-617.28 663.41,-610.47"/>
</g>
<!-- [root] root&#45;&gt;[root] provider[&quot;registry.terraform.io/oracle/oci&quot;] (close) -->
<g id="edge37" class="edge">
<title>[root] root&#45;&gt;[root] provider[&quot;registry.terraform.io/oracle/oci&quot;] (close)</title>
<path fill="none" stroke="black" d="M921.8,-655.27C974.54,-644.44 1060.93,-626.71 1126.37,-613.27"/>
<polygon fill="black" stroke="black" points="1127.19,-616.68 1136.28,-611.24 1125.78,-609.82 1127.19,-616.68"/>
</g>
</g>
</svg>
